<svg width="1117" height="49" viewBox="0 0 1117 49" fill="none" xmlns="http://www.w3.org/2000/svg">
    <path d="M42.1136 17.75H32.1591C31.9773 16.4621 31.6061 15.3182 31.0455 14.3182C30.4849 13.303 29.7652 12.4394 28.8864 11.7273C28.0076 11.0151 26.9924 10.4697 25.8409 10.0909C24.7045 9.71212 23.4697 9.52273 22.1364 9.52273C19.7273 9.52273 17.6288 10.1212 15.8409 11.3182C14.053 12.5 12.6667 14.2273 11.6818 16.5C10.697 18.7576 10.2045 21.5 10.2045 24.7273C10.2045 28.0455 10.697 30.8333 11.6818 33.0909C12.6818 35.3485 14.0758 37.053 15.8636 38.2045C17.6515 39.3561 19.7197 39.9318 22.0682 39.9318C23.3864 39.9318 24.6061 39.7576 25.7273 39.4091C26.8636 39.0606 27.8712 38.553 28.75 37.8864C29.6288 37.2045 30.3561 36.3788 30.9318 35.4091C31.5227 34.4394 31.9318 33.3333 32.1591 32.0909L42.1136 32.1364C41.8561 34.2727 41.2121 36.3333 40.1818 38.3182C39.1667 40.2879 37.7955 42.053 36.0682 43.6136C34.3561 45.1591 32.3106 46.3864 29.9318 47.2955C27.5682 48.1894 24.8939 48.6364 21.9091 48.6364C17.7576 48.6364 14.0455 47.697 10.7727 45.8182C7.51515 43.9394 4.93939 41.2197 3.04545 37.6591C1.16667 34.0985 0.227273 29.7879 0.227273 24.7273C0.227273 19.6515 1.18182 15.3333 3.09091 11.7727C5 8.21212 7.59091 5.5 10.8636 3.63636C14.1364 1.75757 17.8182 0.81818 21.9091 0.81818C24.6061 0.81818 27.1061 1.19697 29.4091 1.95454C31.7273 2.71212 33.7803 3.81818 35.5682 5.27272C37.3561 6.71212 38.8106 8.47727 39.9318 10.5682C41.0682 12.6591 41.7955 15.053 42.1136 17.75ZM77.9205 1.45454H87.7614V31.6818C87.7614 35.0758 86.9508 38.0455 85.3295 40.5909C83.7235 43.1364 81.4735 45.1212 78.5795 46.5455C75.6856 47.9545 72.3144 48.6591 68.4659 48.6591C64.6023 48.6591 61.2235 47.9545 58.3295 46.5455C55.4356 45.1212 53.1856 43.1364 51.5795 40.5909C49.9735 38.0455 49.1705 35.0758 49.1705 31.6818V1.45454H59.0114V30.8409C59.0114 32.6136 59.3977 34.1894 60.1705 35.5682C60.9583 36.947 62.0644 38.0303 63.4886 38.8182C64.9129 39.6061 66.572 40 68.4659 40C70.375 40 72.0341 39.6061 73.4432 38.8182C74.8674 38.0303 75.9659 36.947 76.7386 35.5682C77.5265 34.1894 77.9205 32.6136 77.9205 30.8409V1.45454ZM95.858 48V1.45454H114.222C117.737 1.45454 120.737 2.08333 123.222 3.34091C125.722 4.58333 127.623 6.34848 128.926 8.63636C130.244 10.9091 130.903 13.5833 130.903 16.6591C130.903 19.75 130.237 22.4091 128.903 24.6364C127.57 26.8485 125.638 28.5455 123.108 29.7273C120.593 30.9091 117.547 31.5 113.972 31.5H101.676V23.5909H112.381C114.259 23.5909 115.82 23.3333 117.062 22.8182C118.305 22.303 119.229 21.5303 119.835 20.5C120.456 19.4697 120.767 18.1894 120.767 16.6591C120.767 15.1136 120.456 13.8106 119.835 12.75C119.229 11.6894 118.297 10.8864 117.04 10.3409C115.797 9.7803 114.229 9.5 112.335 9.5H105.699V48H95.858ZM120.994 26.8182L132.562 48H121.699L110.381 26.8182H120.994ZM137.858 48V1.45454H156.222C159.737 1.45454 162.737 2.08333 165.222 3.34091C167.722 4.58333 169.623 6.34848 170.926 8.63636C172.244 10.9091 172.903 13.5833 172.903 16.6591C172.903 19.75 172.237 22.4091 170.903 24.6364C169.57 26.8485 167.638 28.5455 165.108 29.7273C162.593 30.9091 159.547 31.5 155.972 31.5H143.676V23.5909H154.381C156.259 23.5909 157.82 23.3333 159.062 22.8182C160.305 22.303 161.229 21.5303 161.835 20.5C162.456 19.4697 162.767 18.1894 162.767 16.6591C162.767 15.1136 162.456 13.8106 161.835 12.75C161.229 11.6894 160.297 10.8864 159.04 10.3409C157.797 9.7803 156.229 9.5 154.335 9.5H147.699V48H137.858ZM162.994 26.8182L174.562 48H163.699L152.381 26.8182H162.994ZM179.858 48V1.45454H211.222V9.56818H189.699V20.6591H209.608V28.7727H189.699V39.8864H211.312V48H179.858ZM257.977 1.45454V48H249.477L229.227 18.7045H228.886V48H219.045V1.45454H227.682L247.773 30.7273H248.182V1.45454H257.977ZM264.335 9.56818V1.45454H302.562V9.56818H288.312V48H278.585V9.56818H264.335ZM308.858 48V1.45454H318.699V39.8864H338.653V48H308.858ZM336.506 1.45454H347.528L358.142 21.5H358.597L369.21 1.45454H380.233L363.256 31.5455V48H353.483V31.5455L336.506 1.45454ZM429.17 1.45454H439.011V31.6818C439.011 35.0758 438.201 38.0455 436.58 40.5909C434.973 43.1364 432.723 45.1212 429.83 46.5455C426.936 47.9545 423.564 48.6591 419.716 48.6591C415.852 48.6591 412.473 47.9545 409.58 46.5455C406.686 45.1212 404.436 43.1364 402.83 40.5909C401.223 38.0455 400.42 35.0758 400.42 31.6818V1.45454H410.261V30.8409C410.261 32.6136 410.648 34.1894 411.42 35.5682C412.208 36.947 413.314 38.0303 414.739 38.8182C416.163 39.6061 417.822 40 419.716 40C421.625 40 423.284 39.6061 424.693 38.8182C426.117 38.0303 427.216 36.947 427.989 35.5682C428.777 34.1894 429.17 32.6136 429.17 30.8409V1.45454ZM486.04 1.45454V48H477.54L457.29 18.7045H456.949V48H447.108V1.45454H455.744L475.835 30.7273H476.244V1.45454H486.04ZM510.67 48H494.17V1.45454H510.807C515.489 1.45454 519.519 2.38636 522.898 4.25C526.277 6.09848 528.875 8.75757 530.693 12.2273C532.527 15.697 533.443 19.8485 533.443 24.6818C533.443 29.5303 532.527 33.697 530.693 37.1818C528.875 40.6667 526.261 43.3409 522.852 45.2045C519.458 47.0682 515.398 48 510.67 48ZM504.011 39.5682H510.261C513.17 39.5682 515.617 39.053 517.602 38.0227C519.602 36.9773 521.102 35.3636 522.102 33.1818C523.117 30.9848 523.625 28.1515 523.625 24.6818C523.625 21.2424 523.117 18.4318 522.102 16.25C521.102 14.0682 519.61 12.4621 517.625 11.4318C515.64 10.4015 513.193 9.88636 510.284 9.88636H504.011V39.5682ZM540.733 48V1.45454H572.097V9.56818H550.574V20.6591H570.483V28.7727H550.574V39.8864H572.188V48H540.733ZM579.92 48V1.45454H598.284C601.799 1.45454 604.799 2.08333 607.284 3.34091C609.784 4.58333 611.686 6.34848 612.989 8.63636C614.307 10.9091 614.966 13.5833 614.966 16.6591C614.966 19.75 614.299 22.4091 612.966 24.6364C611.633 26.8485 609.701 28.5455 607.17 29.7273C604.655 30.9091 601.61 31.5 598.034 31.5H585.739V23.5909H596.443C598.322 23.5909 599.883 23.3333 601.125 22.8182C602.367 22.303 603.292 21.5303 603.898 20.5C604.519 19.4697 604.83 18.1894 604.83 16.6591C604.83 15.1136 604.519 13.8106 603.898 12.75C603.292 11.6894 602.36 10.8864 601.102 10.3409C599.86 9.7803 598.292 9.5 596.398 9.5H589.761V48H579.92ZM605.057 26.8182L616.625 48H605.761L594.443 26.8182H605.057ZM653.233 48H636.733V1.45454H653.369C658.051 1.45454 662.081 2.38636 665.46 4.25C668.839 6.09848 671.438 8.75757 673.256 12.2273C675.089 15.697 676.006 19.8485 676.006 24.6818C676.006 29.5303 675.089 33.697 673.256 37.1818C671.438 40.6667 668.824 43.3409 665.415 45.2045C662.021 47.0682 657.96 48 653.233 48ZM646.574 39.5682H652.824C655.733 39.5682 658.18 39.053 660.165 38.0227C662.165 36.9773 663.665 35.3636 664.665 33.1818C665.68 30.9848 666.188 28.1515 666.188 24.6818C666.188 21.2424 665.68 18.4318 664.665 16.25C663.665 14.0682 662.172 12.4621 660.188 11.4318C658.203 10.4015 655.756 9.88636 652.847 9.88636H646.574V39.5682ZM683.295 48V1.45454H714.659V9.56818H693.136V20.6591H713.045V28.7727H693.136V39.8864H714.75V48H683.295ZM730.892 1.45454L742.142 36.8182H742.574L753.847 1.45454H764.756L748.71 48H736.028L719.96 1.45454H730.892ZM770.358 48V1.45454H801.722V9.56818H780.199V20.6591H800.108V28.7727H780.199V39.8864H801.812V48H770.358ZM809.545 48V1.45454H819.386V39.8864H839.341V48H809.545ZM886.818 24.7273C886.818 29.803 885.856 34.1212 883.932 37.6818C882.023 41.2424 879.417 43.9621 876.114 45.8409C872.826 47.7045 869.129 48.6364 865.023 48.6364C860.886 48.6364 857.174 47.697 853.886 45.8182C850.598 43.9394 848 41.2197 846.091 37.6591C844.182 34.0985 843.227 29.7879 843.227 24.7273C843.227 19.6515 844.182 15.3333 846.091 11.7727C848 8.21212 850.598 5.5 853.886 3.63636C857.174 1.75757 860.886 0.81818 865.023 0.81818C869.129 0.81818 872.826 1.75757 876.114 3.63636C879.417 5.5 882.023 8.21212 883.932 11.7727C885.856 15.3333 886.818 19.6515 886.818 24.7273ZM876.841 24.7273C876.841 21.4394 876.348 18.6667 875.364 16.4091C874.394 14.1515 873.023 12.4394 871.25 11.2727C869.477 10.1061 867.402 9.52273 865.023 9.52273C862.644 9.52273 860.568 10.1061 858.795 11.2727C857.023 12.4394 855.644 14.1515 854.659 16.4091C853.689 18.6667 853.205 21.4394 853.205 24.7273C853.205 28.0152 853.689 30.7879 854.659 33.0455C855.644 35.303 857.023 37.0152 858.795 38.1818C860.568 39.3485 862.644 39.9318 865.023 39.9318C867.402 39.9318 869.477 39.3485 871.25 38.1818C873.023 37.0152 874.394 35.303 875.364 33.0455C876.348 30.7879 876.841 28.0152 876.841 24.7273ZM894.108 48V1.45454H912.472C916.002 1.45454 919.009 2.12879 921.494 3.47727C923.979 4.81061 925.873 6.66667 927.176 9.04545C928.494 11.4091 929.153 14.1364 929.153 17.2273C929.153 20.3182 928.487 23.0455 927.153 25.4091C925.82 27.7727 923.888 29.6136 921.358 30.9318C918.843 32.25 915.797 32.9091 912.222 32.9091H900.517V25.0227H910.631C912.525 25.0227 914.085 24.697 915.312 24.0455C916.555 23.3788 917.479 22.4621 918.085 21.2955C918.706 20.1136 919.017 18.7576 919.017 17.2273C919.017 15.6818 918.706 14.3333 918.085 13.1818C917.479 12.0151 916.555 11.1136 915.312 10.4773C914.07 9.82576 912.494 9.5 910.585 9.5H903.949V48H894.108ZM935.545 1.45454H947.682L960.5 32.7273H961.045L973.864 1.45454H986V48H976.455V17.7045H976.068L964.023 47.7727H957.523L945.477 17.5909H945.091V48H935.545V1.45454ZM994.108 48V1.45454H1025.47V9.56818H1003.95V20.6591H1023.86V28.7727H1003.95V39.8864H1025.56V48H994.108ZM1072.23 1.45454V48H1063.73L1043.48 18.7045H1043.14V48H1033.3V1.45454H1041.93L1062.02 30.7273H1062.43V1.45454H1072.23ZM1078.59 9.56818V1.45454H1116.81V9.56818H1102.56V48H1092.84V9.56818H1078.59Z" fill="white"/>
</svg>
