<svg width="120" height="120" viewBox="0 0 120 120" fill="none" xmlns="http://www.w3.org/2000/svg">
<path d="M60 21C37.9 21 20 38.8939 20 60.9865C20 78.6805 31.45 93.6254 47.35 98.9236C49.35 99.2735 50.1 98.0739 50.1 97.0243C50.1 96.0746 50.05 92.9256 50.05 89.5768C40 91.4262 37.4 87.1276 36.6 84.8784C36.15 83.7288 34.2 80.18 32.5 79.2303C31.1 78.4805 29.1 76.6312 32.45 76.5812C35.6 76.5312 37.85 79.4802 38.6 80.6798C42.2 86.7277 47.95 85.0283 50.25 83.9787C50.6 81.3796 51.65 79.6301 52.8 78.6305C43.9 77.6308 34.6 74.182 34.6 58.8872C34.6 54.5386 36.15 50.9399 38.7 48.1408C38.3 47.1411 36.9 43.0425 39.1 37.5444C39.1 37.5444 42.45 36.4948 50.1 41.643C53.3 40.7433 56.7 40.2935 60.1 40.2935C63.5 40.2935 66.9 40.7433 70.1 41.643C77.75 36.4448 81.1 37.5444 81.1 37.5444C83.3 43.0425 81.9 47.1411 81.5 48.1408C84.05 50.9399 85.6 54.4887 85.6 58.8872C85.6 74.232 76.25 77.6308 67.35 78.6305C68.8 79.8801 70.05 82.2792 70.05 86.028C70.05 91.3762 70 95.6747 70 97.0243C70 98.0739 70.75 99.3235 72.75 98.9236C80.6907 96.2438 87.5909 91.1421 92.4792 84.3367C97.3675 77.5312 99.9979 69.3646 100 60.9865C100 38.8939 82.1 21 60 21Z" fill="white"/>
</svg>
