<svg width="120" height="120" viewBox="0 0 120 120" fill="none" xmlns="http://www.w3.org/2000/svg">
<path d="M41.7778 19C29.1999 19 19 29.1999 19 41.7778V78.2222C19 90.8001 29.1999 101 41.7778 101H78.2222C90.8001 101 101 90.8001 101 78.2222V41.7778C101 29.1999 90.8001 19 78.2222 19H41.7778ZM41.7778 28.1111H78.2222C85.7708 28.1111 91.8889 34.2292 91.8889 41.7778V78.2222C91.8889 85.7708 85.7708 91.8889 78.2222 91.8889H41.7778C34.2292 91.8889 28.1111 85.7708 28.1111 78.2222V41.7778C28.1111 34.2292 34.2292 28.1111 41.7778 28.1111ZM78.2222 37.2222C75.7076 37.2222 73.6667 39.2631 73.6667 41.7778C73.6667 44.2924 75.7076 46.3333 78.2222 46.3333C80.7369 46.3333 82.7778 44.2924 82.7778 41.7778C82.7778 39.2631 80.7369 37.2222 78.2222 37.2222ZM60 41.7778C49.9368 41.7778 41.7778 49.9368 41.7778 60C41.7778 70.0632 49.9368 78.2222 60 78.2222C70.0632 78.2222 78.2222 70.0632 78.2222 60C78.2222 49.9368 70.0632 41.7778 60 41.7778ZM60 50.8889C65.0339 50.8889 69.1111 54.9661 69.1111 60C69.1111 65.0339 65.0339 69.1111 60 69.1111C54.9661 69.1111 50.8889 65.0339 50.8889 60C50.8889 54.9661 54.9661 50.8889 60 50.8889Z" fill="white"/>
</svg>
