<svg width="120" height="120" viewBox="0 0 120 120" fill="none" xmlns="http://www.w3.org/2000/svg">
<path d="M29.5631 39.2627C34.8823 39.2627 39.1944 34.9506 39.1944 29.6313C39.1944 24.3121 34.8823 20 29.5631 20C24.2439 20 19.9318 24.3121 19.9318 29.6313C19.9318 34.9506 24.2439 39.2627 29.5631 39.2627Z" fill="white"/>
<path d="M48.2887 46.561V99.9956H64.8795V73.571C64.8795 66.5985 66.1912 59.846 74.8365 59.846C83.363 59.846 83.4686 67.8178 83.4686 74.0112V100H100.068V70.6966C100.068 56.3024 96.9693 45.2405 80.1452 45.2405C72.0678 45.2405 66.6534 49.6732 64.4393 53.8682H64.2148V46.561H48.2887V46.561ZM21.2523 46.561H37.8695V99.9956H21.2523V46.561Z" fill="white"/>
</svg>
