<svg width="120" height="120" viewBox="0 0 120 120" fill="none" xmlns="http://www.w3.org/2000/svg">
<path d="M65.8935 60.0004C65.8935 74.3596 54.2766 86 39.9472 86C25.6178 86 14 74.357 14 60.0004C14 45.6439 25.6169 34 39.9472 34C54.2775 34 65.8935 45.6412 65.8935 60.0004ZM94.3575 60.0004C94.3575 73.5165 88.5491 84.4778 81.3839 84.4778C74.2188 84.4778 68.4103 73.5165 68.4103 60.0004C68.4103 46.4843 74.2179 35.523 81.383 35.523C88.5482 35.523 94.3575 46.4808 94.3575 60.0004ZM106 60.0004C106 72.1075 103.957 81.9283 101.437 81.9283C98.9168 81.9283 96.8752 72.1102 96.8752 60.0004C96.8752 47.8907 98.9177 38.0725 101.437 38.0725C103.957 38.0725 106 47.8898 106 60.0004Z" fill="white"/>
</svg>
