<svg width="120" height="120" viewBox="0 0 120 120" fill="none" xmlns="http://www.w3.org/2000/svg">
<path fill-rule="evenodd" clip-rule="evenodd" d="M60.1147 16.0042C63.3636 15.965 65.8481 16.1998 68.7149 16.7867C70.9318 17.2171 73.4928 17.8431 74.4483 18.1953C75.4039 18.5083 77.5444 19.4473 79.2262 20.3081C80.9081 21.1689 83.3926 22.7731 84.7686 23.9077C86.1446 25.0424 88.2469 27.1944 89.47 28.7203C90.6932 30.2071 92.4514 32.9069 93.3306 34.7458C94.2479 36.5848 95.4711 39.3628 97 43.745L95.3564 44.1754C94.4773 44.4101 92.8719 44.8405 91.8399 45.1535C90.7696 45.4665 89.9287 45.7013 89.9287 45.7013C89.9287 45.7404 89.5083 44.6057 89.0114 43.2754C88.5145 41.906 87.4824 39.5975 86.718 38.0716C85.9153 36.4283 84.2335 34.1589 82.5899 32.3982C81.0992 30.794 78.8822 28.8377 77.6591 28.0943C76.3977 27.3509 74.1043 26.2553 72.5372 25.7076C70.97 25.1207 68.218 24.4164 66.4215 24.1816C64.3957 23.8686 61.376 23.7512 58.3946 23.9077C55.2603 24.0643 52.6229 24.4164 50.75 24.9642C49.1828 25.4337 46.6601 26.451 45.2076 27.2335C43.4494 28.1726 41.5382 29.6594 39.6271 31.6157C37.9835 33.2981 36.1488 35.6457 35.3461 37.0934C34.5816 38.502 33.4731 41.2017 32.8233 43.1581C32.1736 45.1144 31.4091 48.3619 31.1033 50.3965C30.7593 52.5485 30.4917 56.5785 30.4917 59.9825C30.4917 63.3083 30.7593 67.4166 31.0651 69.4903C31.3709 71.4466 32.1353 74.6159 32.7087 76.494C33.282 78.4112 34.4287 81.1892 35.2696 82.676C36.1488 84.3193 37.907 86.5886 39.6271 88.3885C41.844 90.6578 43.2965 91.7534 45.781 93.0054C47.845 94.0618 50.3295 94.9226 52.6612 95.3921C54.9545 95.9008 57.8213 96.1747 60.4969 96.1747C62.7903 96.1747 65.8099 95.979 67.1859 95.7443C68.562 95.5095 70.626 95.0009 71.7727 94.6096C72.9194 94.2183 74.907 93.2793 76.1684 92.5359C77.4298 91.7925 79.4174 90.2274 80.564 89.0927C81.7107 87.9189 83.125 86.1974 83.6601 85.2192C84.2335 84.241 84.9979 82.4021 85.3419 81.1109C85.8006 79.4676 85.9535 77.9025 85.8388 76.0244C85.7242 74.1855 85.3419 72.5422 84.6157 70.938C83.9659 69.412 82.8574 67.9252 81.5961 66.7123C80.4876 65.695 79.4938 64.8342 79.3027 64.8734C79.1498 64.8734 78.9205 65.3429 78.8058 65.9689C78.6911 66.5558 78.4236 67.8078 78.1942 68.786C77.9649 69.7642 77.3151 71.6031 76.7417 72.8943C76.1302 74.1855 74.8306 76.2201 73.7986 77.3939C72.6901 78.6068 70.9318 80.0936 69.6322 80.7588C68.4091 81.4239 66.4215 82.2065 65.2748 82.4803C64.1281 82.7542 61.9494 82.989 60.4969 82.989C59.0444 82.989 56.8657 82.7542 55.719 82.4803C54.5723 82.2065 52.5847 81.4239 51.3616 80.7588C50.1002 80.0936 48.3419 78.6851 47.4246 77.5895C46.5072 76.5331 45.3988 74.655 44.9401 73.4812C44.405 71.9944 44.1756 70.3902 44.1756 68.3947C44.1756 66.634 44.4432 64.756 44.8254 63.6996C45.1694 62.7214 46.0103 61.1563 46.6601 60.2564C47.3481 59.3174 48.9153 57.8306 50.1767 56.9698C51.438 56.1481 53.6932 55.0526 55.1457 54.583C57.4773 53.8396 58.7004 53.7223 71.7345 53.7223L71.5052 52.7441C71.3905 52.1963 71.0083 51.0616 70.626 50.2009C70.282 49.3401 69.5558 48.1271 69.0207 47.462C68.4855 46.7968 67.2242 45.8578 66.1921 45.3492C64.6632 44.5666 63.7076 44.371 60.8791 44.371C57.8977 44.3319 57.1715 44.4884 55.3368 45.3883C54.1901 45.9361 52.7758 46.9533 52.2025 47.6185C51.5909 48.2837 51.0176 48.7923 50.8647 48.7532C50.6736 48.6749 49.2975 47.775 47.8068 46.6795C45.6663 45.1926 45.1312 44.6057 45.3605 44.1362C45.5517 43.8232 46.6219 42.6494 47.7304 41.5539C48.8771 40.4583 50.5207 39.1671 51.438 38.7367C52.3171 38.2672 54.0372 37.6021 55.2603 37.2891C56.4452 36.976 59.0062 36.7022 60.8791 36.7022C62.9432 36.7022 65.1601 36.9369 66.4215 37.3282C67.5682 37.6803 69.3264 38.3846 70.3585 38.8933C71.3523 39.4019 72.9576 40.654 73.9132 41.7104C74.8688 42.7277 76.2066 44.684 76.8946 46.0926C77.5826 47.5011 78.3089 49.6922 78.5764 50.9834C78.8058 52.2746 79.1116 53.9961 79.2262 54.8178C79.4174 56.1481 79.6467 56.3829 81.7872 57.5567C83.125 58.2218 85.3037 59.8651 86.6798 61.1954C88.2851 62.7214 89.6612 64.5212 90.5785 66.2819C91.343 67.7687 92.2603 70.0381 92.5661 71.3292C92.9101 72.6204 93.1777 75.1637 93.1777 77.0026C93.1777 78.8416 92.9101 81.3848 92.6043 82.676C92.2986 83.9672 91.3812 86.3148 90.5785 87.9189C89.814 89.5231 88.1322 91.949 86.8709 93.3576C85.6095 94.7661 83.5455 96.6442 82.2841 97.5441C81.0227 98.4831 79.1116 99.6569 78.0795 100.205C77.0475 100.713 75.3275 101.457 74.2572 101.848C73.2252 102.2 70.7025 102.826 68.7149 103.257C66.345 103.726 63.5547 104 60.688 104C57.7448 104 54.9928 103.726 52.2789 103.178C50.062 102.709 47.157 101.926 45.781 101.379C44.405 100.87 42.188 99.7743 40.812 98.9918C39.4359 98.2093 37.3719 96.7616 36.2252 95.7834C35.0785 94.7661 33.2438 92.8489 32.1736 91.4403C31.0651 90.0709 29.4979 87.6059 28.6188 86.0017C27.7779 84.3975 26.6312 81.7369 26.0961 80.1327C25.561 78.5286 24.7583 75.5941 24.376 73.6768C23.9556 71.7596 23.4587 67.8861 23.2293 65.069C22.9236 61.4302 22.9236 58.5348 23.2293 54.8961C23.4587 52.0789 23.9556 48.2445 24.376 46.2882C24.7583 44.3319 25.561 41.4365 26.0961 39.8323C26.6312 38.2281 27.7779 35.5675 28.6188 33.9633C29.4979 32.3591 30.9122 30.0506 31.8295 28.8768C32.7087 27.703 34.2758 25.9423 35.3078 25.0033C36.3399 24.0643 38.2128 22.6166 39.4742 21.7558C40.7355 20.9341 43.0671 19.6821 44.6343 19.0169C46.2014 18.3518 49.2975 17.4127 51.5145 16.9432C54.343 16.2781 56.8657 16.0042 60.1147 16.0042ZM55.1457 62.8388C54.1136 63.4257 52.8523 64.5212 52.3936 65.2646C51.7438 66.2428 51.5145 67.1818 51.5145 68.5904C51.5145 69.9598 51.782 70.938 52.3936 71.7988C52.8523 72.503 54.1136 73.5595 55.1457 74.1464C56.8275 75.1245 57.439 75.2419 60.4969 75.2419C63.4019 75.2419 64.2428 75.0854 65.8099 74.2637C66.8419 73.716 68.1798 72.6596 68.7531 71.9161C69.3264 71.1727 70.2056 69.4903 70.626 68.1991C71.0847 66.9079 71.5434 64.9516 71.6581 63.8952L71.8874 61.9389C69.8616 61.4693 67.4917 61.2346 65.2748 61.1563C63.0578 61.0781 60.3058 61.1563 59.1591 61.3911C58.0124 61.5867 56.2159 62.2519 55.1457 62.8388Z" fill="white"/>
</svg>
